max v2;#N vpatcher 528 72 1129 490;#P window setfont "Sans Serif" 9.;#P newex 656 166 40 196617 key;#B color 5;#P newex 656 188 51 196617 select 32;#P button 657 222 56 0;#N vpatcher 916 479 1232 847;#P button 172 170 15 0;#P window setfont "Sans Serif" 9.;#P newex 168 193 69 196617 pack 145 0 0;#P message 165 108 26 196617 127;#P newex 166 133 40 196617 uzi;#P outlet 60 239 15 0;#P button 64 165 15 0;#P newex 60 188 69 196617 pack 144 0 0;#P message 57 103 26 196617 127;#P newex 58 128 40 196617 uzi;#P inlet 57 59 15 0;#P connect 0 0 2 0;#P connect 2 0 1 0;#P connect 4 0 3 0;#P connect 8 0 5 0;#P connect 3 0 5 0;#P connect 1 2 4 0;#P connect 1 2 3 1;#P connect 0 0 7 0;#P connect 7 0 6 0;#P connect 9 0 8 0;#P connect 6 2 9 0;#P connect 6 2 8 1;#P pop;#P newobj 657 293 70 196617 patcher panic;#P newex 442 269 45 196617 midiinfo;#P message 442 247 14 196617 1;#P newex 442 220 52 196617 loadbang;#P user umenu 438 300 96 196647 1 64 316 0;#X add "AU DLS Synth 1";#X add "IAC Driver Bus 1";#X add "from MaxMSP 1";#X add "from MaxMSP 2";#X add "SimpleSynth virtual input";#P newex 334 304 57 196617 pack 0 0 0;#P newex 334 342 43 196617 midiout;#P newex 338 271 76 196617 unpack 0 0 0 0;#P newex 338 169 86 196617 udpreceive 8888;#P newex 277 195 58 196617 print oscIn;#P newex 94 268 50 196617 midi2vst;#P newex 22 290 62 196617 print midiin;#P newex 92 178 45 196617 midiinfo;#P message 157 179 20 196617 0;#P newex 122 154 52 196617 loadbang;#P user umenu 92 203 96 196647 1 64 219 0;#X add "IAC Driver Bus 1";#X add "to MaxMSP 1";#X add "to MaxMSP 2";#P newex 94 230 37 196617 midiin;#P window setfont "Sans Serif" 14.;#P comment 94 126 136 196622 Realtime MIDI input;#P window setfont "Sans Serif" 18.;#P window linecount 2;#P comment 268 64 274 196626 receive events from Strasheela;#P window setfont "Sans Serif" 9.;#P window linecount 1;#P newex 94 304 79 196617 prepend /event;#P newex 94 340 115 196617 udpsend localhost 7777;#P window setfont "Sans Serif" 18.;#P comment 11 61 243 196626 send events to Strasheela;#P connect 11 0 10 0;#P connect 9 0 6 0;#P connect 6 1 5 0;#P connect 5 0 11 0;#P connect 11 0 2 0;#P connect 2 0 1 0;#P connect 8 0 9 1;#P fasten 7 0 8 0 127 174 162 174;#P connect 13 0 12 0;#P connect 14 1 16 0;#P connect 16 0 15 0;#P connect 21 0 15 0;#P connect 17 1 15 0;#P connect 13 0 14 0;#P connect 14 2 16 1;#P connect 14 3 16 2;#P connect 20 0 17 0;#P fasten 18 0 19 0 447 242 447 242;#P connect 19 0 20 0;#P connect 24 0 23 0;#P connect 23 0 22 0;#P connect 22 0 21 0;#P pop;